<svg xmlns="http://www.w3.org/2000/svg" viewBox="0 0 256 256" role="img" aria-labelledby="title desc">
  <title id="title">Manhwa Fan Fav Rankings icon</title>
  <desc id="desc">A warm orange badge with stacked ranking cards and a small graph accent.</desc>
  <defs>
    <linearGradient id="bg" x1="0%" x2="100%" y1="0%" y2="100%">
      <stop offset="0%" stop-color="#FF6B35" />
      <stop offset="55%" stop-color="#FFB84C" />
      <stop offset="100%" stop-color="#1D8F7A" />
    </linearGradient>
  </defs>
  <rect width="256" height="256" rx="56" fill="url(#bg)" />
  <rect x="44" y="58" width="132" height="140" rx="24" fill="#FFF7EE" opacity="0.95" />
  <rect x="62" y="82" width="72" height="14" rx="7" fill="#132238" opacity="0.85" />
  <rect x="62" y="110" width="96" height="12" rx="6" fill="#132238" opacity="0.22" />
  <rect x="62" y="132" width="84" height="12" rx="6" fill="#132238" opacity="0.22" />
  <rect x="62" y="162" width="44" height="20" rx="10" fill="#FF6B35" opacity="0.95" />
  <rect x="114" y="162" width="44" height="20" rx="10" fill="#1D8F7A" opacity="0.92" />
  <path d="M171 82h26c8.837 0 16 7.163 16 16v63c0 8.837-7.163 16-16 16h-26z" fill="#132238" opacity="0.16" />
  <path d="M176 156l14-20 12 8 18-32" fill="none" stroke="#FFF7EE" stroke-linecap="round" stroke-linejoin="round" stroke-width="10" />
</svg>

